<?xml version="1.0" encoding="utf-8"?>
<!-- Generator: Adobe Illustrator 23.0.3, SVG Export Plug-In . SVG Version: 6.00 Build 0)  -->
<svg version="1.1" id="Layer_1" xmlns="http://www.w3.org/2000/svg" xmlns:xlink="http://www.w3.org/1999/xlink" x="0px" y="0px"
	 viewBox="0 0 720 720" style="enable-background:new 0 0 720 720;" xml:space="preserve">
<style type="text/css">
	.st0{fill:#FFFFFF;}
</style>
<g>
	<path class="st0" d="M385.66,560.42c-1.11-1.9-2.51-3.7-4.22-5.4c-3.07-2.98-6.53-5.03-10.38-6.17h14.6V560.42z M251.22,594.08
		c6.11,0,11.32-2.11,15.63-6.32c4.32-4.22,6.47-9.31,6.47-15.27v-23.63h-44.22v23.63c0,5.96,2.16,11.05,6.47,15.27
		S245.11,594.08,251.22,594.08z M634.24,551.2l0.4-0.23l0.39-0.23c1.45-0.77,2.92-1.4,4.41-1.89h-89.51
		c3.85,1.14,7.3,3.19,10.37,6.19c4.93,4.82,7.4,10.64,7.4,17.45s-2.47,12.63-7.4,17.45c-2.67,2.61-5.66,4.49-8.93,5.69h87.11
		c-3.35-1.19-6.36-3.06-9.01-5.63l-1.5-1.58l2.41-2l1.34,1.43c4.18,4.06,9.24,6.14,15.16,6.25h0.47c3.74,0,7.26-0.9,10.58-2.7
		l0.35-0.19l0.32-0.19c2.32-1.41,3.83-3.41,4.54-5.98c0.26-0.95,0.39-1.88,0.39-2.78c0-1.49-0.36-2.89-1.07-4.2
		c-2.08-3.83-4.9-5.75-8.45-5.75c-1.79,0-3.78,0.49-5.96,1.47c-2.13,0.95-4.57,1.45-7.3,1.5h-0.24c-4.29,0-7.88-2.11-10.78-6.32
		c-1.21-1.75-1.82-3.88-1.82-6.4v-0.62C628.08,557.24,630.19,553.67,634.24,551.2z M345.69,589.94c-4.94-4.82-7.4-10.64-7.4-17.45
		s2.47-12.63,7.4-17.45c3.06-2.99,6.52-5.05,10.37-6.19h-79.57v23.63c0,6.81-2.47,12.63-7.4,17.45c-2.67,2.61-5.66,4.49-8.93,5.69
		h94.47C351.35,594.43,348.37,592.55,345.69,589.94z M233.35,589.94c-4.94-4.82-7.4-10.64-7.4-17.45v-23.63h-63.38v8.6l4.46-2.51
		l1.62,2.66l-6.08,3.43v34.59h79.72C239.01,594.43,236.03,592.55,233.35,589.94z M92.08,593.62l-0.39,0.23l-0.43,0.23
		c-1.13,0.61-2.27,1.11-3.44,1.54h71.6v-32.82l-4.46,2.51l-1.58-2.66l6.04-3.43v-10.37H86.85c3.83,1.19,7.22,3.23,10.17,6.13
		l-2.25,2.2c-4.21-4.19-9.32-6.34-15.32-6.44h-0.47c-3.74,0-7.28,0.9-10.62,2.7l-0.32,0.19l-0.36,0.19
		c-2.32,1.41-3.82,3.46-4.5,6.13c-0.21,0.87-0.32,1.72-0.32,2.54c0,1.72,0.46,3.35,1.38,4.9c1.95,3.29,4.66,4.94,8.13,4.94
		c1.76,0,3.72-0.42,5.88-1.27c2.42-0.98,4.86-1.48,7.3-1.5h0.24c4.26,0,7.86,2.11,10.78,6.32c1.18,1.72,1.78,3.86,1.78,6.4v0.62
		C98.2,587.58,96.11,591.15,92.08,593.62z M524.57,589.94c-4.93-4.82-7.4-10.64-7.4-17.45s2.47-12.63,7.4-17.45
		c3.06-2.99,6.52-5.05,10.37-6.19h-79.57v46.77h78.14C530.23,594.43,527.24,592.55,524.57,589.94z M655.07,548.85
		c3.83,1.19,7.22,3.23,10.17,6.13l-2.25,2.2c-4.21-4.19-9.32-6.34-15.32-6.44h-0.47c-3.74,0-7.28,0.9-10.62,2.7l-0.32,0.19
		l-0.36,0.19c-2.32,1.41-3.82,3.46-4.5,6.13c-0.21,0.87-0.32,1.72-0.32,2.54c0,1.72,0.46,3.35,1.38,4.9
		c1.95,3.29,4.66,4.94,8.13,4.94c1.76,0,3.72-0.42,5.88-1.27c2.42-0.98,4.86-1.48,7.3-1.5h0.24c4.26,0,7.86,2.11,10.78,6.32
		c1.18,1.72,1.78,3.86,1.78,6.4v0.62c-0.16,4.68-2.25,8.25-6.28,10.72l-0.39,0.23l-0.43,0.23c-1.13,0.61-2.27,1.11-3.44,1.54h22.74
		v-46.77H655.07z M61.25,589.99l-1.5-1.58l2.41-2l1.34,1.43c4.18,4.06,9.24,6.14,15.16,6.25h0.47c3.74,0,7.26-0.9,10.58-2.7
		l0.36-0.19l0.32-0.19c2.32-1.41,3.83-3.41,4.54-5.98c0.26-0.95,0.39-1.88,0.39-2.78c0-1.49-0.35-2.89-1.07-4.2
		c-2.08-3.83-4.9-5.75-8.45-5.75c-1.79,0-3.78,0.49-5.96,1.47c-2.13,0.95-4.57,1.45-7.3,1.5H72.3c-4.29,0-7.88-2.11-10.78-6.32
		c-1.21-1.75-1.82-3.88-1.82-6.4v-0.62c0.16-4.68,2.26-8.25,6.32-10.72l0.4-0.23l0.4-0.23c1.45-0.77,2.92-1.4,4.41-1.89H50.88v46.77
		h19.38C66.91,594.43,63.9,592.57,61.25,589.99z M452.21,548.85h-63.38v23.63c0,6.81-2.47,12.63-7.4,17.45
		c-2.67,2.61-5.66,4.49-8.93,5.69h79.72V548.85z M526.8,587.76c4.32,4.22,9.53,6.32,15.63,6.32s11.32-2.11,15.63-6.32
		s6.47-9.31,6.47-15.27s-2.16-11.05-6.47-15.27c-4.32-4.22-9.53-6.32-15.63-6.32s-11.32,2.11-15.63,6.32
		c-4.32,4.22-6.47,9.31-6.47,15.27S522.48,583.54,526.8,587.76z M363.56,550.89c-6.11,0-11.32,2.11-15.63,6.32
		c-4.32,4.22-6.47,9.31-6.47,15.27s2.16,11.05,6.47,15.27c4.32,4.22,9.53,6.32,15.63,6.32c6.11,0,11.32-2.11,15.63-6.32
		s6.47-9.31,6.47-15.27s-2.16-11.05-6.47-15.27C374.87,553,369.66,550.89,363.56,550.89z"/>
	<path class="st0" d="M79.71,466.41c4.18,0,8.18,0.87,12,2.59c3.69,1.7,6.97,4.06,9.83,7.11c2.83,3.08,5.03,6.61,6.6,10.58
		c1.61,4.12,2.41,8.42,2.41,12.92v31.13H98.99v-5.19c-2.7,2.32-5.66,4.1-8.87,5.34c-3.34,1.28-6.81,1.92-10.41,1.92
		c-4.18,0-8.18-0.87-12-2.59c-3.69-1.69-6.97-4.06-9.83-7.11c-2.83-3.08-5.03-6.61-6.6-10.58c-1.61-4.12-2.41-8.42-2.41-12.92
		c0-4.5,0.8-8.8,2.41-12.92c1.57-3.98,3.77-7.51,6.6-10.58c2.86-3.04,6.14-5.41,9.83-7.11C71.53,467.28,75.53,466.41,79.71,466.41z
		 M71.95,461.17c-1.32,1.42-2.91,2.13-4.77,2.13c-1.86,0-3.45-0.71-4.77-2.13c-1.32-1.42-1.98-3.13-1.98-5.14
		c0-2.01,0.66-3.72,1.98-5.14c1.32-1.42,2.91-2.13,4.77-2.13c1.86,0,3.45,0.71,4.77,2.13c1.32,1.42,1.98,3.13,1.98,5.14
		C73.93,458.04,73.27,459.76,71.95,461.17z M79.71,520.38c2.6,0,5.11-0.54,7.52-1.61c2.28-1.07,4.32-2.56,6.12-4.46
		c1.77-1.94,3.13-4.13,4.1-6.59c1.03-2.59,1.54-5.29,1.54-8.09s-0.51-5.5-1.54-8.09c-0.96-2.49-2.33-4.69-4.1-6.59
		c-1.8-1.9-3.84-3.39-6.12-4.46c-2.41-1.07-4.92-1.61-7.52-1.61c-2.63,0-5.14,0.54-7.52,1.61c-2.31,1.07-4.35,2.56-6.12,4.46
		c-1.77,1.9-3.15,4.1-4.14,6.59c-1,2.59-1.49,5.29-1.49,8.09s0.5,5.5,1.49,8.09c1,2.46,2.38,4.65,4.14,6.59
		c1.77,1.9,3.81,3.39,6.12,4.46C74.57,519.84,77.08,520.38,79.71,520.38z M97.01,461.17c-1.32,1.42-2.91,2.13-4.77,2.13
		c-1.86,0-3.45-0.71-4.77-2.13c-1.32-1.42-1.98-3.13-1.98-5.14c0-2.01,0.66-3.72,1.98-5.14c1.32-1.42,2.91-2.13,4.77-2.13
		c1.86,0,3.45,0.71,4.77,2.13c1.32,1.42,1.98,3.13,1.98,5.14C98.99,458.04,98.33,459.76,97.01,461.17z M237.89,530.75h-11.57v-31.13
		c0-2.8-0.5-5.5-1.49-8.09c-1-2.46-2.38-4.65-4.15-6.59c-1.8-1.9-3.84-3.39-6.12-4.46c-2.41-1.07-4.92-1.61-7.52-1.61
		c-3.15,0-6.12,0.78-8.92,2.33c-2.7,1.52-4.93,3.62-6.7,6.28c1.41,3.87,2.12,7.92,2.12,12.14v31.13h-11.57v-31.13
		c0-4.5-1.22-8.54-3.66-12.14c-1.77-2.66-4-4.76-6.7-6.28c-2.8-1.56-5.77-2.33-8.92-2.33c-2.6,0-5.11,0.54-7.52,1.61
		c-2.31,1.07-4.35,2.56-6.12,4.46c-1.77,1.94-3.15,4.13-4.15,6.59c-1,2.59-1.49,5.29-1.49,8.09v31.13h-11.57v-31.13
		c0-4.5,0.8-8.8,2.41-12.92c1.57-3.98,3.77-7.51,6.6-10.58c2.86-3.04,6.14-5.41,9.83-7.11c3.82-1.73,7.82-2.59,12-2.59
		c4.27,0,8.35,0.9,12.24,2.7c3.76,1.76,7.07,4.24,9.93,7.42c2.86-3.18,6.17-5.66,9.93-7.42c3.89-1.8,7.97-2.7,12.24-2.7
		c4.18,0,8.18,0.87,12,2.59c3.69,1.7,6.97,4.06,9.83,7.11c2.83,3.08,5.03,6.61,6.6,10.58c1.61,4.12,2.41,8.42,2.41,12.92V530.75z
		 M318.77,456.04v43.58c0,4.5-0.8,8.8-2.41,12.92c-1.57,3.98-3.78,7.51-6.6,10.58c-2.86,3.04-6.14,5.41-9.83,7.11
		c-3.82,1.73-7.82,2.59-12,2.59c-4.18,0-8.18-0.87-12-2.59c-3.69-1.69-6.97-4.06-9.83-7.11c-2.83-3.08-5.03-6.61-6.6-10.58
		c-1.61-4.12-2.41-8.42-2.41-12.92c0-4.5,0.8-8.8,2.41-12.92c1.57-3.98,3.77-7.51,6.6-10.58c2.86-3.04,6.14-5.41,9.83-7.11
		c3.82-1.73,7.82-2.59,12-2.59c3.6,0,7.07,0.64,10.41,1.92c3.21,1.25,6.17,3.03,8.87,5.34v-17.64H318.77z M287.92,520.38
		c2.6,0,5.11-0.54,7.52-1.61c2.28-1.07,4.32-2.56,6.12-4.46c1.77-1.94,3.13-4.13,4.1-6.59c1.03-2.59,1.54-5.29,1.54-8.09
		s-0.51-5.5-1.54-8.09c-0.96-2.46-2.33-4.65-4.1-6.59c-1.8-1.9-3.84-3.39-6.12-4.46c-2.41-1.07-4.92-1.61-7.52-1.61
		c-2.63,0-5.14,0.54-7.52,1.61c-2.31,1.07-4.35,2.56-6.12,4.46c-1.77,1.94-3.15,4.13-4.14,6.59c-1,2.59-1.49,5.29-1.49,8.09
		s0.5,5.5,1.49,8.09c1,2.46,2.38,4.65,4.14,6.59c1.77,1.9,3.81,3.39,6.12,4.46C282.78,519.84,285.29,520.38,287.92,520.38z
		 M368.8,466.41c4.18,0,8.18,0.87,12,2.59c3.69,1.7,6.97,4.06,9.83,7.11c2.83,3.08,5.03,6.61,6.6,10.58
		c1.61,4.12,2.41,8.42,2.41,12.92c0,4.5-0.8,8.8-2.41,12.92c-1.58,3.98-3.78,7.51-6.6,10.58c-2.86,3.04-6.14,5.41-9.83,7.11
		c-3.82,1.73-7.82,2.59-12,2.59c-4.18,0-8.18-0.87-12-2.59c-3.69-1.69-6.97-4.06-9.83-7.11c-2.83-3.08-5.03-6.61-6.6-10.58
		c-1.61-4.12-2.41-8.42-2.41-12.92c0-4.5,0.8-8.8,2.41-12.92c1.57-3.98,3.77-7.51,6.6-10.58c2.86-3.04,6.14-5.41,9.83-7.11
		C360.62,467.28,364.62,466.41,368.8,466.41z M349.52,499.62c0,2.8,0.5,5.5,1.49,8.09c1,2.46,2.38,4.65,4.14,6.59
		c1.77,1.9,3.81,3.39,6.12,4.46c2.38,1.07,4.88,1.61,7.52,1.61c2.6,0,5.11-0.54,7.52-1.61c2.28-1.07,4.32-2.56,6.12-4.46
		c1.77-1.94,3.13-4.13,4.1-6.59c1.03-2.59,1.54-5.29,1.54-8.09s-0.51-5.5-1.54-8.09c-0.96-2.49-2.33-4.69-4.1-6.59
		c-1.8-1.9-3.84-3.39-6.12-4.46c-2.41-1.07-4.92-1.61-7.52-1.61c-2.64,0-5.14,0.54-7.52,1.61c-2.31,1.07-4.35,2.56-6.12,4.46
		c-1.77,1.9-3.15,4.1-4.14,6.59C350.02,494.12,349.52,496.82,349.52,499.62z M468.27,494.23c-1.09-4.46-3.36-8.13-6.79-11
		c-3.47-2.91-7.41-4.36-11.81-4.36c-2.64,0-5.14,0.54-7.52,1.61c-2.31,1.07-4.35,2.56-6.12,4.46c-1.77,1.94-3.15,4.13-4.14,6.59
		c-1,2.59-1.49,5.29-1.49,8.09v31.13h-11.57v-31.13c0-4.5,0.8-8.8,2.41-12.92c1.57-3.98,3.77-7.51,6.6-10.58
		c2.86-3.04,6.14-5.41,9.83-7.11c3.82-1.73,7.82-2.59,12-2.59c7.07,0,13.38,2.33,18.94,7c2.63,2.21,4.87,4.81,6.7,7.78
		c1.9,3.04,3.28,6.31,4.14,9.81L468.27,494.23z M598.01,530.75h-11.57v-31.13c0-2.8-0.5-5.5-1.49-8.09c-1-2.46-2.38-4.65-4.14-6.59
		c-1.8-1.9-3.84-3.39-6.12-4.46c-2.41-1.07-4.92-1.61-7.52-1.61c-3.15,0-6.12,0.78-8.92,2.33c-2.7,1.52-4.93,3.62-6.7,6.28
		c1.41,3.87,2.12,7.92,2.12,12.14v31.13h-11.57v-31.13c0-4.5-1.22-8.54-3.66-12.14c-1.77-2.66-4-4.76-6.7-6.28
		c-2.79-1.56-5.77-2.33-8.92-2.33c-2.6,0-5.11,0.54-7.52,1.61c-2.31,1.07-4.35,2.56-6.12,4.46c-1.77,1.94-3.15,4.13-4.14,6.59
		c-1,2.59-1.49,5.29-1.49,8.09v31.13h-11.57v-31.13c0-4.5,0.8-8.8,2.41-12.92c1.57-3.98,3.77-7.51,6.6-10.58
		c2.86-3.04,6.14-5.41,9.83-7.11c3.82-1.73,7.82-2.59,12-2.59c4.27,0,8.35,0.9,12.24,2.7c3.76,1.76,7.07,4.24,9.93,7.42
		c2.86-3.18,6.17-5.66,9.93-7.42c3.89-1.8,7.97-2.7,12.24-2.7c4.18,0,8.18,0.87,12,2.59c3.69,1.7,6.97,4.06,9.83,7.11
		c2.83,3.08,5.03,6.61,6.6,10.58c1.61,4.12,2.41,8.42,2.41,12.92V530.75z M648.04,466.41c4.18,0,8.18,0.87,12,2.59
		c3.69,1.7,6.97,4.06,9.83,7.11c2.83,3.08,5.03,6.61,6.6,10.58c1.61,4.12,2.41,8.42,2.41,12.92v31.13h-11.57v-5.19
		c-2.7,2.32-5.66,4.1-8.87,5.34c-3.34,1.28-6.81,1.92-10.41,1.92c-4.18,0-8.18-0.87-12-2.59c-3.7-1.69-6.97-4.06-9.83-7.11
		c-2.83-3.08-5.03-6.61-6.6-10.58c-1.61-4.12-2.41-8.42-2.41-12.92c0-4.5,0.8-8.8,2.41-12.92c1.57-3.98,3.77-7.51,6.6-10.58
		c2.86-3.04,6.14-5.41,9.83-7.11C639.87,467.28,643.87,466.41,648.04,466.41z M648.04,520.38c2.6,0,5.11-0.54,7.52-1.61
		c2.28-1.07,4.32-2.56,6.12-4.46c1.77-1.94,3.13-4.13,4.1-6.59c1.03-2.59,1.54-5.29,1.54-8.09s-0.51-5.5-1.54-8.09
		c-0.96-2.49-2.33-4.69-4.1-6.59c-1.8-1.9-3.84-3.39-6.12-4.46c-2.41-1.07-4.92-1.61-7.52-1.61c-2.64,0-5.14,0.54-7.52,1.61
		c-2.31,1.07-4.35,2.56-6.12,4.46c-1.77,1.9-3.15,4.1-4.14,6.59c-1,2.59-1.49,5.29-1.49,8.09s0.5,5.5,1.49,8.09
		c1,2.46,2.38,4.65,4.14,6.59c1.77,1.9,3.81,3.39,6.12,4.46C642.9,519.84,645.41,520.38,648.04,520.38z"/>
	<path class="st0" d="M521.81,149.62H354.94c-19.92,0-38.99,3.56-57.23,10.67c-17.62,6.97-33.24,16.72-46.88,29.25
		c-13.48,12.67-23.98,27.19-31.49,43.55c-7.66,16.94-11.49,34.66-11.49,53.16c0,18.5,3.83,36.22,11.49,53.16
		c7.51,16.37,18.01,30.88,31.49,43.55c13.64,12.52,29.27,22.27,46.88,29.25c18.24,7.11,37.31,10.67,57.23,10.67
		c19.92,0,39-3.56,57.23-10.67c17.62-6.97,33.25-16.72,46.89-29.25c13.48-12.67,23.98-27.18,31.49-43.55
		c7.66-16.94,11.49-34.65,11.49-53.16c0-15.94-2.84-31.31-8.5-46.11c-5.52-14.23-13.41-27.33-23.67-39.28h51.95V149.62z
		 M253.37,246.37c3.69-7.84,8.31-15.14,13.85-21.9l9.98,17.68l70.44-39.77l-9.68-17.15c5.58-0.81,11.24-1.23,16.98-1.23
		c14.86,0,29.18,2.73,42.94,8.18c13.03,5.12,24.68,12.36,34.96,21.73c0.78,0.73,1.51,1.49,2.26,2.24l-184.06,104.3
		c-4.12-10.9-6.2-22.29-6.2-34.19C244.84,272.44,247.69,259.15,253.37,246.37z M456.51,326.13c-3.73,8.06-8.44,15.49-14.08,22.3
		l-7.37-13.05l-70.44,39.77l6.91,12.24c-5.45,0.75-10.98,1.13-16.59,1.13c-14.86,0-29.18-2.64-42.94-7.92
		c-13.21-5.28-24.86-12.61-34.96-21.99c-1.61-1.49-3.14-3.04-4.64-4.6l185.21-104.95c4.93,11.96,7.42,24.36,7.42,37.21
		C465.04,300.23,462.2,313.52,456.51,326.13z"/>
</g>
</svg>
